PathFileType	4	(X/Y/Z)	T1_P1_NoVision_NoMovement_0_0-649.trc
DataRate	CameraRate	NumFrames	NumMarkers	Units	OrigDataRate	OrigDataStartFrame	OrigNumFrames
60	60	4	27	m	60	567	649
Frame#	Time	RHip			RKnee			RAnkle			RBigToe			RSmallToe			RHeel			LHip			LKnee			LAnkle			LBigToe			LSmallToe			LHeel			Neck			Head			Nose			RShoulder			RElbow			RWrist			RThumb			RIndex			RPinky			LShoulder			LElbow			LWrist			LThumb			LIndex			LPinky		
		X1	Y1	Z1	X2	Y2	Z2	X3	Y3	Z3	X4	Y4	Z4	X5	Y5	Z5	X6	Y6	Z6	X7	Y7	Z7	X8	Y8	Z8	X9	Y9	Z9	X10	Y10	Z10	X11	Y11	Z11	X12	Y12	Z12	X13	Y13	Z13	X14	Y14	Z14	X15	Y15	Z15	X16	Y16	Z16	X17	Y17	Z17	X18	Y18	Z18	X19	Y19	Z19	X20	Y20	Z20	X21	Y21	Z21	X22	Y22	Z22	X23	Y23	Z23	X24	Y24	Z24	X25	Y25	Z25	X26	Y26	Z26	X27	Y27	Z27
568	9.466666666666667	-70.33616878787184	3835.1703114311927	-524.0980955363887	295.4910473763987	3977.6445488470918	-518.7901555704922	640.141955393731	4156.63663371302	-532.6518426613313	725.7441113660042	4011.023797822474	-502.74228377100286	732.0852501050274	4057.402224382081	-596.3802258648147	663.4200736395353	4175.286696739331	-517.7831833715735	-104.74192792883943	3910.2517800753267	-341.36016270204516	260.7729003971034	4026.584213274902	-336.0741528676269	603.8678369026646	4253.651252435999	-358.69473192704754	683.6098775970963	4136.821379077181	-236.49152583250458	664.3009074226813	4234.2188876341	-224.20058577836159	631.6359227631012	4293.262239559484	-385.0521602389443	-622.293927796589	3676.7388526450013	-450.52509477953043	-877.0099523673202	3477.1846515922552	-359.1150389069219	-696.4791795161876	3499.4690955587034	-303.5268396522117	-556.408737171883	3607.927868404664	-562.9358585061398	-284.47795472088	3724.881563522312	-660.9327862793895	-33.19431144510459	3740.2759969026424	-588.9489704432248	78.59544430235947	3757.4139457031497	-539.9425805438882	103.14662003375189	3778.4976183896847	-558.8783448197092	98.76344374231881	3790.627689658323	-586.1662761443167	-611.7438914411999	3796.9546265366967	-337.84994684729025	-378.90502658538475	3964.7652301559237	-289.26728686185805	-136.8979588447418	3946.852100938508	-207.78816086851683	-18.09998746986488	3965.365972276572	-214.1220153114818	6.385445969496639	3959.744658656905	-197.31253999579545	-10.841004649203024	4002.1343842563824	-195.34874868474645
569	9.483333333333333	-70.34104421059271	3835.5108723318335	-524.2545017127694	295.43952958568764	3977.4867168932456	-518.5727556256886	629.23348005776	4122.9748272791685	-526.498144024251	725.6290094341356	4011.6133039689353	-503.1693752404846	731.7871634152364	4057.507951136895	-596.6800495863029	658.1086590831746	4175.149971165462	-518.1999504136808	-104.80311939240954	3910.358724085168	-341.36974508446684	260.79052730940384	4026.6749476135606	-336.05349246354734	603.8346335628439	4253.334754655724	-358.5235714453231	678.3226925809003	4133.945749190542	-237.34765682775142	664.3477436422462	4234.390373676342	-224.24382163391468	638.8634753723973	4297.50986448708	-386.86298482216796	-622.2884501915723	3676.6089888135416	-450.4868342847026	-882.152427209418	3476.125743480102	-359.53525226009344	-696.4662264614765	3499.4644289862244	-303.51382977146426	-556.387205267744	3607.9293119196273	-563.0320714325727	-284.4333560626526	3724.9024767507117	-660.9050116949427	-32.90031414377566	3714.3264931948156	-582.6399505971866	80.0786849456144	3774.5083242001874	-553.4992576098301	103.05679260350945	3778.4010069197293	-558.8677976986871	98.59331474861747	3790.604845810148	-586.035015520457	-611.7671563581708	3796.8493477222723	-337.76161458149886	-384.47621097444653	3963.0415229722817	-289.7908245068519	-132.23948861499406	3931.7136432139328	-197.059074282931	-12.97265195856525	3969.312669486177	-215.7200738616054	11.456671637395237	3963.1835656761373	-198.65303161345463	-10.54430923223193	4002.221067316215	-195.35676538667235
570	9.5	-64.75424634246208	3837.5856669015207	-523.7208673313359	298.28518055564774	3998.564739509664	-533.9285641387636	629.0595907646276	4123.245143062701	-526.7587509005994	720.6655462919316	4012.565576787304	-503.94836087128124	737.2696766078684	4077.4661970178445	-610.9696890359029	657.910216988528	4175.239672792773	-518.4162399254219	-109.78275860606662	3906.603716867917	-339.8651768215049	260.68961055032895	4026.5430295891533	-336.01879216568085	603.6066785309968	4252.704081706398	-358.4368825874663	678.4562921621555	4134.23950772584	-237.30768012031916	658.5805927644195	4231.3746670717155	-225.1544639363876	631.3827123539465	4292.593681476178	-384.9186799369888	-622.3330358084465	3676.637811403694	-450.48704288090937	-877.3298522138035	3478.5319048001897	-365.32736589417414	-696.4946133622851	3499.358595700306	-303.4807671846429	-556.3884539889923	3607.9246254456343	-562.9476845631375	-284.5134635350302	3724.570475555708	-660.7219469027177	-32.955531446926585	3714.2136932772687	-582.5923559991188	85.71155526854497	3777.293744352129	-553.4232997111214	103.00384655429119	3778.790327001406	-559.152570150839	98.60420183488758	3790.7643455492785	-586.1734242601807	-611.7392905822367	3796.8285654423535	-337.74180723868454	-378.8658488053233	3964.712414438384	-289.11492810788883	-132.19169876343466	3931.7287738394602	-197.06579317412445	-12.978390962671336	3969.3719195764825	-215.75376219902395	11.405074257145117	3963.420651763984	-198.76013202859838	-10.532559380863118	4002.0577474204993	-195.33347449929414
571	9.516666666666667	-64.66175879435092	3837.2927421122586	-523.390997205	298.3505444890429	3998.2450575158414	-533.6716547241051	629.1469932271071	4123.020334478971	-526.6150894189997	725.8225379576514	4011.955550776219	-503.26621075280786	737.41758073485	4077.8087759659848	-611.0754390586053	663.1755280563078	4174.479928877501	-517.6254631203635	-104.67423144878501	3910.2478044872746	-341.2997968936831	260.6760771247483	4026.6220192517067	-336.12130966029133	603.6839008222378	4253.192241562832	-358.5862746899939	678.6079127517057	4134.524725943916	-237.4256179355949	664.3892763107998	4234.49854183863	-224.32250343793314	631.2855605707924	4292.673478123504	-384.972457627356	-622.2925469720224	3676.6746171149593	-450.52018573753804	-882.2789424088609	3477.38582693381	-365.6767996485442	-696.4704295813232	3499.458588022158	-303.44187928441556	-556.3856004234252	3607.8677856613076	-562.9329139425865	-284.16753219129333	3706.9438702648513	-645.8117365813408	-32.92416176643927	3714.2378806181964	-582.5957767762615	85.56859954870143	3777.0675225252885	-553.2005962231132	102.9890897754933	3778.7062997981147	-559.1130832495191	97.08289253561531	3773.0600693789374	-571.7953214402323	-611.727615264701	3796.767972960045	-337.7414587913758	-384.409923195969	3962.664894160471	-289.491665411934	-132.2436244240027	3931.6182948256205	-197.00025174806308	-13.005010460172606	3969.301963751853	-215.7087099019039	11.411345921180775	3963.531143206704	-198.81560942225462	-10.420541191162524	4002.144636677776	-195.47933559631926
